# xmcd
#
# Track frame offsets: 
#        150
#        21290
#        38330
#        54810
#        74645
#        91732
#        111012
#        128687
#        147860
#        165720
#        181457
#        196792
#        213057
#
# Disc length: 3217 seconds
#
# Revision: 1
# Processed by: cddbd v1.5.2PL0 Copyright (c) Steve Scherf et al.
# Submitted via: ExactAudioCopy v1.0b3
#
DISCID=a40c8f0d
DTITLE=Z. Z. Hill - This Time They Told The Truth - The Columbia Years
DYEAR=1998
DGENRE=Blues
TTITLE0=Universal Love
TTITLE1=This Time They Told The Truth
TTITLE2=Stop By And Love Me Sometime
TTITLE3=Love Is So Good When Your Stealing It
TTITLE4=Let's Make A Deal
TTITLE5=I Don't Want Our Love To Be No Secret
TTITLE6=I Want To Be Your Every Need
TTITLE7=A Message To The Ladies
TTITLE8=Whip It On Me Baby
TTITLE9=Just Because We're No Longer Lovers
TTITLE10=Tell It Like It Is
TTITLE11=That's All That's Left
TTITLE12=Let's Have A Party
EXTD=YEAR: 1998
EXTT0=
EXTT1=
EXTT2=
EXTT3=
EXTT4=
EXTT5=
EXTT6=
EXTT7=
EXTT8=
EXTT9=
EXTT10=
EXTT11=
EXTT12=
PLAYORDER=
